<svg width="436" height="656" viewBox="0 0 436 656" fill="none" xmlns="http://www.w3.org/2000/svg">
<path d="M434.63 655.046H1.02233L0.625244 136.104C0.625244 136.104 23.2184 130.084 26.2365 119.523C36.5848 83.314 78.5166 93.2993 78.5166 93.2993C76.4434 84.2684 85.5914 74.0912 93.5411 68.2618C99.72 63.7292 107.113 60.3208 115.181 58.3247C126.236 55.5883 139.181 54.9514 150.355 57.5713C151.871 57.9269 153.397 58.3116 154.834 58.832C155.565 59.1002 157.605 59.7311 157.868 60.4232C151.237 42.3191 164.237 26.0875 189.443 21.9246C214.649 17.7617 216.777 0.0755005 216.777 0.0755005C216.777 0.0755005 218.899 17.7688 244.113 21.9246C269.319 26.0865 282.327 42.3191 275.688 60.4232C275.942 59.7301 277.991 59.0932 278.721 58.832C280.159 58.3116 281.684 57.9279 283.201 57.5703C294.375 54.9584 307.319 55.5883 318.373 58.3247C326.434 60.3208 333.836 63.7292 340.015 68.2618C347.964 74.0983 357.113 84.2674 355.039 93.2993C355.039 93.2993 396.963 83.307 407.318 119.523C410.337 130.084 434.209 136.345 434.209 136.345L434.63 655.046Z" fill="#CFFD3C" stroke="black" stroke-width="1.2498"/>
</svg>
