<svg width="558" height="259" viewBox="0 0 558 259" fill="none" xmlns="http://www.w3.org/2000/svg">
<path d="M553.81 79.1021H455.472C455.172 79.1016 454.877 79.0308 454.61 78.8952C454.342 78.7597 454.111 78.5632 453.933 78.3217L429.627 45.1813C417.046 28.0414 405.983 16.3445 396.729 10.4252C391.961 7.36716 385.579 5.05852 377.777 3.55261C370.148 2.08731 360.883 1.34033 350.264 1.34033H334.53C333.197 1.34033 332.265 2.67343 332.741 3.93167L333.143 4.99401L341.79 27.9769L341.985 28.4865C342.122 28.8498 342.367 29.1627 342.686 29.3833C343.006 29.604 343.385 29.722 343.773 29.7217H362.693C377.766 29.7217 389.349 31.3152 397.098 34.46C404.726 37.549 413.069 44.9751 421.923 56.5206L436.801 76.0123C437.766 77.2705 436.866 79.091 435.284 79.091H3.25871C2.75018 79.0918 2.26272 79.2943 1.90314 79.654C1.54356 80.0138 1.34117 80.5014 1.34033 81.0102V101.803C1.34138 102.312 1.54386 102.799 1.90342 103.159C2.26298 103.518 2.75032 103.721 3.25871 103.721H108.043C108.531 103.721 108.997 103.906 109.344 104.231C116.67 111.116 120.375 118.129 120.375 125.089C120.375 133.48 116.767 139.507 109.355 143.54C101.51 147.812 87.2492 150.066 66.9638 150.251L65.664 150.262C64.2224 150.272 63.3118 151.812 63.9947 153.08L64.6124 154.23L75.5575 174.643L75.7844 175.077C75.9519 175.389 76.2027 175.648 76.5087 175.826C76.8148 176.004 77.1642 176.093 77.5181 176.085L78.006 176.074C90.7493 175.738 101.639 173.949 110.417 170.751C110.731 170.637 111.07 170.608 111.399 170.667C111.728 170.726 112.036 170.871 112.292 171.087C116.983 175.001 120.603 179.293 123.062 183.879C125.858 189.061 127.267 194.817 127.267 200.954C127.267 208.802 124.352 214.895 118.371 219.579C112.183 224.424 105.237 226.788 97.1205 226.788C88.8747 226.788 80.5524 223.395 72.4037 216.716C63.9844 209.822 54.8709 198.623 45.3459 183.435L24.801 150.836L24.3998 150.197C24.1371 149.779 23.7229 149.479 23.2441 149.36C22.7653 149.241 22.2589 149.311 21.8311 149.557L21.1816 149.936L15.5029 153.189L14.788 153.569C14.5646 153.697 14.3694 153.869 14.2139 154.074C14.0585 154.28 13.9461 154.514 13.8833 154.764C13.8206 155.014 13.8089 155.274 13.8489 155.529C13.889 155.783 13.9799 156.027 14.1162 156.246L14.5492 156.94L35.4961 190.481C51.5221 216.087 64.1364 231.991 74.0618 239.114C84.031 246.268 94.6608 249.901 105.649 249.901C118.186 249.901 128.751 246.096 137.052 238.583C145.45 231.005 149.709 221.259 149.709 209.605C149.709 200.444 147.205 191.707 142.286 183.652C138.32 177.169 132.696 170.99 125.533 165.244C125.31 165.066 125.129 164.84 125.004 164.583C124.879 164.326 124.813 164.044 124.811 163.758C124.809 163.473 124.871 163.19 124.992 162.931C125.113 162.672 125.291 162.444 125.512 162.262C129.077 159.325 131.948 155.921 134.093 152.105C137.193 146.576 138.764 140.082 138.764 132.797C138.764 122.801 135.687 114.118 129.575 106.877C128.524 105.63 129.402 103.721 131.027 103.721H384.982C385.234 103.721 385.484 103.77 385.717 103.867C385.95 103.963 386.162 104.104 386.34 104.283C386.518 104.461 386.659 104.673 386.756 104.906C386.852 105.139 386.901 105.389 386.901 105.641V128.591C386.9 129.099 386.697 129.587 386.338 129.947C385.978 130.306 385.491 130.508 384.982 130.509H307.689C305.976 130.509 305.131 132.591 306.345 133.784L307.71 135.139C324.463 151.628 334.421 162.718 337.293 168.095C340.088 173.298 341.508 177.765 341.508 181.365C341.508 186.047 340.1 189.679 337.206 192.455C334.27 195.273 330.553 196.639 325.828 196.639C319.272 196.639 311.449 192.433 302.606 184.118C295.606 177.548 288.173 166.469 280.511 151.194L280.49 151.151L271.734 132.081L271.529 131.627C271.377 131.294 271.133 131.011 270.826 130.813C270.518 130.615 270.161 130.509 269.795 130.509H197.301C195.589 130.509 194.743 132.591 195.957 133.784L197.334 135.139C214.086 151.628 224.044 162.718 226.916 168.095C229.712 173.298 231.131 177.765 231.131 181.365C231.131 186.047 229.722 189.679 226.83 192.455C223.892 195.273 220.176 196.639 215.452 196.639C208.896 196.639 201.072 192.433 192.23 184.118C183.127 175.575 173.353 159.487 163.189 136.32L162.831 135.496C162.721 135.247 162.559 135.025 162.356 134.843C162.154 134.662 161.915 134.526 161.656 134.444C161.396 134.362 161.123 134.336 160.853 134.368C160.583 134.4 160.322 134.489 160.089 134.629L159.32 135.084L153.913 138.337L153.361 138.673C152.98 138.899 152.691 139.252 152.542 139.67C152.394 140.087 152.396 140.544 152.548 140.96L152.764 141.567C161.585 166.285 171.901 185.961 183.431 200.043C189.293 207.22 195.35 212.695 201.419 216.326C207.639 220.044 214.043 221.931 220.458 221.931C230.795 221.931 239.465 218.505 246.226 211.741C252.977 204.987 256.412 196.401 256.412 186.232C256.412 180.67 254.776 174.795 251.558 168.767C249.716 165.309 247.32 161.742 244.395 158.11C243.387 156.864 244.276 154.999 245.88 154.999H266.977C267.747 154.999 268.451 155.465 268.743 156.181C276.199 174.111 284.618 188.855 293.786 200.054C299.648 207.231 305.706 212.705 311.774 216.337C317.994 220.056 324.409 221.942 330.824 221.942C341.161 221.942 349.83 218.516 356.592 211.751C363.353 204.997 366.778 196.412 366.778 186.242C366.778 180.681 365.142 174.806 361.934 168.778C360.092 165.32 357.687 161.753 354.772 158.11C353.764 156.864 354.652 154.999 356.256 154.999H384.982C385.234 154.998 385.484 155.048 385.717 155.144C385.95 155.24 386.162 155.382 386.34 155.56C386.518 155.738 386.659 155.95 386.756 156.183C386.852 156.416 386.901 156.666 386.901 156.918V238.214C386.901 238.691 387.085 239.157 387.41 239.514L387.616 239.742L403.295 256.774L403.534 257.034C403.903 257.424 404.412 257.652 404.943 257.652H411.758C412.267 257.651 412.754 257.448 413.114 257.089C413.473 256.729 413.676 256.242 413.677 255.733V105.662C413.678 105.154 413.88 104.666 414.239 104.307C414.599 103.947 415.086 103.745 415.594 103.744H440.843C441.351 103.745 441.838 103.947 442.198 104.307C442.557 104.666 442.76 105.154 442.76 105.662V236.436C442.76 236.891 442.924 237.336 443.227 237.683L443.422 237.911L459.644 256.697L459.882 256.969C460.239 257.391 460.77 257.63 461.323 257.63H467.445C467.954 257.629 468.441 257.427 468.801 257.067C469.161 256.707 469.363 256.22 469.364 255.711V105.641C469.365 105.132 469.567 104.645 469.926 104.285C470.286 103.925 470.773 103.723 471.281 103.721H554.622C555.131 103.721 555.618 103.518 555.977 103.159C556.337 102.799 556.539 102.312 556.54 101.803V81.0102C556.539 80.5015 556.337 80.0138 555.978 79.6541C555.618 79.2943 555.131 79.0918 554.622 79.091L553.81 79.1021Z" fill="#FFFCF7" stroke="black" stroke-width="2.6806" stroke-miterlimit="10"/>
</svg>
