<svg width="657" height="384" viewBox="0 0 657 384" fill="none" xmlns="http://www.w3.org/2000/svg">
<path d="M147.396 303.146C147.396 363.031 128.442 383.702 73.7026 383.702C18.9645 383.702 0 363.031 0 303.146V6.35604H26.3148V273.461C26.3148 298.37 40.0051 308.437 73.6923 308.437C107.38 308.437 121.07 298.37 121.07 273.461V6.35604H147.396V303.146ZM243.885 377.346H170.193V302.092H243.885C282.836 302.092 291.263 292.025 291.263 267.116V6.35604H317.589V296.779C317.589 356.147 304.426 377.346 243.885 377.346ZM413.02 377.346H339.327V302.092H413.02C451.97 302.092 460.397 292.025 460.397 267.116V6.35604H486.723V296.779C486.712 356.147 473.549 377.346 413.02 377.346ZM582.749 383.703C522.208 383.703 509.056 362.504 509.056 303.146V80.5562C509.056 21.1989 522.219 0 582.749 0C643.289 0 656.441 21.1981 656.441 80.5562V303.146C656.441 362.504 643.289 383.703 582.749 383.703ZM582.749 75.2549C543.798 75.2549 535.371 85.3211 535.371 110.23V273.461C535.371 298.37 543.798 308.437 582.749 308.437C621.699 308.437 630.126 298.37 630.126 273.461V110.241C630.126 85.3321 621.699 75.2541 582.749 75.2541V75.2549Z" fill="black"/>
</svg>
