<svg width="200" height="71" viewBox="0 0 200 71" fill="none" xmlns="http://www.w3.org/2000/svg">
<g clip-path="url(#clip0_1_13)">
<path d="M99.924 1.24731L91.4426 11.069L91.3092 11.2234L91.1193 11.2221L79.0475 11.1333L79.1252 24.9343L79.1263 25.1514L78.9913 25.3039L70.4001 35.0001L78.9912 44.696L79.1263 44.8486L79.1252 45.0657L79.0475 58.8667L91.1193 58.7778L91.3092 58.7765L91.4426 58.9309L99.924 68.7526L108.405 58.9309L108.539 58.7765L108.728 58.7778L120.8 58.8667L120.723 45.0657L120.721 44.8486L120.856 44.696L129.448 35.0001L120.856 25.3039L120.721 25.1514L120.723 24.9343L120.8 11.1333L108.728 11.2221L108.539 11.2234L108.405 11.069L99.924 1.24731V1.24731Z" stroke="black" stroke-width="1.02941"/>
<path d="M109.415 26.9922C109.33 26.6618 108.92 26.6829 108.876 27.0233C108.619 29.018 110.098 33.7354 109.569 35.9184C109.566 35.9325 109.562 35.9466 109.559 35.9607C109.444 36.4295 108.841 36.3376 108.836 35.8512C108.819 33.9655 108.385 31.9035 107.453 30.6407C103.945 25.8833 107.691 22.3732 107.553 21.2354C107.534 21.081 107.405 20.9935 107.276 21.0431C107.27 21.0453 107.267 21.0467 107.265 21.0479C107.041 21.1887 106.831 21.3598 106.621 21.5261C105.218 22.6416 103.932 23.9835 103.19 25.7904C102.763 26.8294 102.649 27.9888 102.406 29.0915C102.313 29.5111 102.205 29.9264 102.081 30.3354C101.941 30.7942 101.746 31.2547 101.435 31.5947C101.297 31.7465 101.127 31.8586 100.939 31.9004C100.446 32.0095 100.185 31.618 100.091 31.1575C99.8305 29.8771 100.022 28.5843 100.12 27.2956C100.513 22.1071 95.5644 21.6242 97.3728 14.0587C97.8522 12.0534 91.3766 18.6429 93.5581 24.3763C93.9847 25.4974 93.9454 26.5672 93.4615 27.6484C92.9459 28.799 92.3119 29.8411 91.9991 31.1012C91.8867 31.5542 91.8236 32.0126 91.7739 32.4784C91.7101 33.0774 91.8625 33.9778 91.1699 34.1335C90.8829 34.1981 90.4851 34.1625 90.2473 33.9479C90.0615 33.7799 89.9588 33.5182 89.8976 33.2564C89.611 32.0328 89.6464 30.795 89.7825 29.5459C89.9022 28.4463 89.9861 26.375 88.9857 28.4423C85.7628 35.103 85.8782 43.399 89.813 49.6488C91.3258 52.0517 93.2453 53.5833 95.7568 54.2831C100.863 55.7055 106.97 55.2749 110.185 50.2589C111.413 48.3429 112.151 46.0029 112.633 43.7112C113.249 40.7836 113.367 38.0024 112.403 35.1615C111.467 32.4045 110.145 29.8419 109.415 26.9922V26.9922Z" fill="black"/>
</g>
<path d="M168.789 27.5C173.21 27.5001 176.822 31.0842 176.822 35.5C176.822 39.9158 173.21 43.4999 168.789 43.5C164.369 43.5 160.757 39.9158 160.757 35.5C160.757 31.0842 164.369 27.5 168.789 27.5Z" fill="#8B83F6" stroke="black"/>
<path d="M30.27 27.5C34.6906 27.5001 38.3022 31.0842 38.3022 35.5C38.3022 39.9158 34.6906 43.4999 30.27 43.5C25.8493 43.5 22.2378 39.9158 22.2378 35.5C22.2378 31.0842 25.8493 27.5 30.27 27.5Z" fill="#FB4B4D" stroke="black"/>
<defs>
<clipPath id="clip0_1_13">
<rect width="61.2296" height="70" fill="white" transform="translate(68.9147)"/>
</clipPath>
</defs>
</svg>
